<?xml version="1.0" encoding="utf-8"?>
<!-- Generator: Adobe Illustrator 23.0.4, SVG Export Plug-In . SVG Version: 6.00 Build 0)  -->
<svg version="1.1" id="Camada_1" xmlns="http://www.w3.org/2000/svg" xmlns:xlink="http://www.w3.org/1999/xlink" x="0px" y="0px"
	 viewBox="0 0 200 100" style="enable-background:new 0 0 200 100;" xml:space="preserve">
<style type="text/css">
	.st0{fill:#FFFFFF;stroke:#FFFFFF;stroke-miterlimit:10;}
</style>
<path class="st0" d="M72.9,49.1C72.8,49,72.7,49,72.5,49L14,49.1l25.3-24.3c0.2-0.2,0.2-0.5,0-0.6C39.3,24,39.2,24,39.1,24
	c-0.1,0-0.2,0-0.3,0.1l-26.1,25c-0.1,0.1-0.1,0.2-0.1,0.3c0,0.1,0,0.2,0.1,0.3l26.3,26.3c0.2,0.2,0.5,0.2,0.6,0
	c0.2-0.2,0.2-0.5,0-0.6c0,0-25.6-25.6-25.4-25.5l58.4-0.1c0.3,0,0.5-0.2,0.5-0.5C73,49.3,72.9,49.2,72.9,49.1z"/>
</svg>
